<?xml version="1.0" encoding="UTF-8" standalone="no"?>
<!-- Created with Inkscape (http://www.inkscape.org/) -->

<svg
   xmlns:dc="http://purl.org/dc/elements/1.1/"
   xmlns:cc="http://creativecommons.org/ns#"
   xmlns:rdf="http://www.w3.org/1999/02/22-rdf-syntax-ns#"
   xmlns:svg="http://www.w3.org/2000/svg"
   xmlns="http://www.w3.org/2000/svg"
   xmlns:sodipodi="http://sodipodi.sourceforge.net/DTD/sodipodi-0.dtd"
   xmlns:inkscape="http://www.inkscape.org/namespaces/inkscape"
   width="500"
   height="500"
   id="svg2"
   version="1.1"
   inkscape:version="0.48.2 r9819"
   sodipodi:docname="rugo.svg">
  <defs
     id="defs4" />
  <sodipodi:namedview
     id="base"
     pagecolor="#ffffff"
     bordercolor="#666666"
     borderopacity="1.0"
     inkscape:pageopacity="0.0"
     inkscape:pageshadow="2"
     inkscape:zoom="0.49497475"
     inkscape:cx="282.61264"
     inkscape:cy="85.570852"
     inkscape:document-units="px"
     inkscape:current-layer="layer1"
     showgrid="false"
     inkscape:window-width="1440"
     inkscape:window-height="848"
     inkscape:window-x="-8"
     inkscape:window-y="-8"
     inkscape:window-maximized="1" />
  <metadata
     id="metadata7">
    <rdf:RDF>
      <cc:Work
         rdf:about="">
        <dc:format>image/svg+xml</dc:format>
        <dc:type
           rdf:resource="http://purl.org/dc/dcmitype/StillImage" />
        <dc:title></dc:title>
      </cc:Work>
    </rdf:RDF>
  </metadata>
  <g
     inkscape:label="Ebene 1"
     inkscape:groupmode="layer"
     id="layer1"
     transform="translate(0,-552.36218)">
    <path
       style="fill:none;stroke:#000000;stroke-width:10;stroke-linecap:butt;stroke-linejoin:miter;stroke-miterlimit:4;stroke-opacity:0.50196078;stroke-dasharray:none"
       d="m 27.318657,611.21852 c 5.38748,0 10.77496,0 16.16244,0 1.34687,0 2.71206,0.22143 4.04061,0 2.73886,-0.45647 5.32601,-1.6759 8.08122,-2.0203 5.34587,-0.66824 10.8291,0.7619 16.16244,0 2.10818,-0.30117 3.9603,-1.67021 6.06091,-2.02031 1.99282,-0.33213 4.0681,0.33214 6.06092,0 2.10061,-0.3501 3.95273,-1.71913 6.06091,-2.0203 3.11095,-0.44442 16.776573,0 20.203053,0 5.21871,0 11.39308,-0.52993 16.16244,0 2.11657,0.23517 3.97269,1.60266 6.06092,2.0203 1.32071,0.26415 2.69374,0 4.04061,0 2.02031,0 4.04061,0 6.06092,0 7.40778,0 14.81557,0 22.22335,0 17.50931,0 35.01862,0 52.52793,0 9.42809,0 18.85618,0 28.28428,0 4.04061,0 8.13619,-0.66427 12.12183,0 1.48535,0.24756 2.564,1.72499 4.04061,2.02031 4.64582,0.92916 11.40822,-0.79237 16.16244,0 2.10061,0.3501 3.99491,1.5038 6.06091,2.0203 0.65333,0.16333 1.38143,-0.21296 2.02031,0 1.42857,0.47619 2.57972,1.65509 4.04061,2.02031 2.68068,0.67017 9.74336,-0.79282 12.12183,0 0.90351,0.30117 1.09636,1.78932 2.0203,2.0203 1.95999,0.49 4.04061,0 6.06092,0 0.67343,0 1.38143,-0.21296 2.0203,0 1.42857,0.47619 2.57973,1.65509 4.04061,2.02031 1.30666,0.32666 2.69374,0 4.04061,0 3.36718,0 6.73435,0 10.10153,0 1.34687,0 2.69374,0 4.04061,0 0.67343,0 1.41797,-0.30117 2.0203,0 0.85184,0.42592 1.16847,1.59439 2.02031,2.0203 0.73635,0.36818 8.93743,0 10.10152,0 7.40779,0 14.81558,0 22.22336,0 18.18275,0 36.36549,0 54.54824,0 5.38748,0 10.77496,0 16.16244,0 1.71049,0 6.99509,0.36205 8.08122,0 0.90351,-0.30117 1.16847,-1.59438 2.0203,-2.0203 0.73061,-0.36531 8.69633,0 10.10153,0 0.67343,0 1.54411,0.47619 2.0203,0 2.69375,-2.69374 -3.36717,-2.02031 2.02031,-2.02031 0,8.08122 0,16.16244 0,24.24366 0,1.34687 0,2.69374 0,4.04061 0,0.67344 0.30117,1.41797 0,2.02031 -0.42592,0.85183 -1.59439,1.16847 -2.02031,2.0203 -0.3653,0.73061 0,8.69633 0,10.10153 0,2.57905 -0.43202,12.41403 0,14.14214 0.0709,0.2836 3.64948,3.45391 4.04062,4.04061 0.83529,1.25294 1.54411,2.61203 2.0203,4.04061 0.7156,2.1468 -0.7156,5.93442 0,8.08122 0.47619,1.42857 1.54411,2.61204 2.02031,4.04061 0.42385,1.27158 0,8.28049 0,10.10152 0,8.08122 0,16.16244 0,24.24366 0,8.08122 0,16.16244 0,24.24366 0,1.48307 -0.35217,11.4175 0,12.12183 0.42591,0.85184 1.59438,1.16847 2.0203,2.02031 0.36531,0.73061 0,8.69632 0,10.10153 0,2.03455 -0.37242,11.00456 0,12.12183 0.30117,0.9035 1.59439,1.16847 2.02031,2.0203 0.30116,0.60234 0,1.34687 0,2.02031 0,0.67343 0,1.34687 0,2.0203 0,4.04061 0,8.08122 0,12.12183 0,0.67344 0.47619,1.54412 0,2.02031 -0.4762,0.47619 -1.54412,-0.47619 -2.02031,0 -0.47619,0.47619 0.47619,1.54411 0,2.0203 -0.47619,0.47619 -1.34687,0 -2.0203,0 -0.67344,0 -1.34687,0 -2.02031,0 -4.04061,0.67344 -8.04231,1.64944 -12.12183,2.02031 -3.35335,0.30485 -6.73435,0 -10.10153,0 -10.38016,0 -12.94614,0 -24.24366,0 -18.85618,0 -37.71236,0 -56.56854,0 -7.40778,0 -14.82835,-0.435 -22.22336,0 -31.72773,1.86633 13.28587,4.09352 -32.32488,2.0203 -16.87224,-0.76692 -33.64396,-3.10374 -50.50762,-4.04061 -3.36199,-0.18678 -6.73435,0 -10.10153,0 -10.10152,0 -20.20305,0 -30.30458,0 -24.24366,0 -48.48732,0 -72.73098,0 -8.08122,0 -16.18624,-0.6198 -24.24366,0 -2.76847,0.21296 -5.33248,1.62763 -8.08122,2.02031 -2,0.28571 -4.04061,0 -6.06092,0 -6.06091,0 -12.121833,0 -18.182743,0 -0.67344,0 -1.34687,0 -2.02031,0 -4.71404,0 -9.42809,0 -14.14213,0 -0.90986,0 -5.44607,0.30742 -6.06092,0 -4.99299,-2.4965 0.69737,-2.02031 -4.04061,-2.02031 -11.1452,0 -24.80117,0 -30.30457,0 -5.59461,0 1.554,2.02031 -4.04061,2.02031 -0.74193,0 -7.99992,-0.0813 -8.08122,0 -0.4762,0.47619 0.47619,1.54411 0,2.0203 -0.4762,0.47619 -2.02031,0.67344 -2.02031,0 0,-0.67343 1.41797,0.30117 2.02031,0 0.85183,-0.42592 1.34687,-1.34687 2.0203,-2.0203 -2.35244,-14.11465 -2.0203,-8.02549 -2.0203,-18.18275 0,-2.0203 -0.90351,-4.2539 0,-6.06091 0.67343,-1.34687 3.20531,-0.76737 4.04061,-2.02031 0.7471,-1.12066 0,-2.69374 0,-4.04061 0,-2.0203 -0.39622,-4.07984 0,-6.06091 0.29532,-1.47661 1.65508,-2.57973 2.0203,-4.04061 0.32666,-1.30666 0,-2.69375 0,-4.04062 0,-5.38748 0,-10.77496 0,-16.16244 0,-2.0203 -0.28571,-4.06091 0,-6.06091 -2.08921,-5.21326 3.20532,-7.94536 4.04061,-12.12183 0.83456,-4.17281 -0.98529,-12.22126 0,-16.16244 0.23099,-0.92395 1.78932,-1.09636 2.02031,-2.02031 0.46455,-1.8582 0,-13.02 0,-16.16244 0,-1.4052 0.3653,-9.37091 0,-10.10152 -0.42592,-0.85184 -1.59439,-1.16847 -2.02031,-2.02031 -0.60234,-1.20468 0.60234,-2.83593 0,-4.04061 -0.42592,-0.85183 -1.59439,-1.16847 -2.0203,-2.0203 -0.59601,-1.19202 0.46321,-4.67129 0,-6.06092 -0.47619,-1.42857 -1.54412,-2.61204 -2.02031,-4.04061 -0.40155,-1.20465 0,-10.16442 0,-12.12183 0,-0.67344 0,-1.34687 0,-2.02031 0,-0.67343 0.30117,-1.41796 0,-2.0203 -1.08588,-2.17176 -2.95473,-3.88915 -4.04061,-6.06092 -0.30117,-0.60233 0,-1.34687 0,-2.0203 0,-0.67344 0,-1.34687 0,-2.02031 0,-3.36717 0,-6.73435 0,-10.10152 0,-0.67344 0.30117,-1.41797 0,-2.02031 -0.42592,-0.85183 -1.59439,-1.16847 -2.0203,-2.0203 -0.30117,-0.60234 0,-1.34687 0,-2.02031 0,-0.67343 0,-1.34687 0,-2.0203 0,-7.64066 -0.56042,-4.94008 4.04061,-14.14214 z"
       id="path4877"
       inkscape:connector-curvature="0" />
    <path
       style="fill:none;stroke:#000000;stroke-width:10;stroke-linecap:butt;stroke-linejoin:miter;stroke-miterlimit:4;stroke-opacity:0.50196078;stroke-dasharray:none"
       d="m 21.257737,813.24903 c 0,2.69374 -0.44285,5.42413 0,8.08122 0.24756,1.48536 1.54411,2.61204 2.02031,4.04061 0.42591,1.27776 -0.60234,2.83594 0,4.04061 0.42591,0.85184 1.59438,1.16847 2.0203,2.02031 0.30117,0.60234 0,1.34687 0,2.0203 0,1.34687 -0.32666,2.73396 0,4.04061 0.36522,1.46089 1.54412,2.61204 2.02031,4.04061 0.3901,1.17031 0,6.33046 0,8.08122 0,5.38748 0,10.77496 0,16.16244 0,1.1288 -0.39742,8.9093 0,10.10153 0.47619,1.42857 1.72498,2.56401 2.0203,4.04061 0.39622,1.98107 0,4.04061 0,6.06092 0,4.04061 0,8.08122 0,12.12183 0,0.67343 -0.47619,1.54411 0,2.0203 0.47619,0.47619 1.54412,-0.47619 2.02031,0 0.0813,0.0813 0,7.33929 0,8.08122 0,6.06092 0,12.12183 0,18.18275 0,0.90986 0.30742,5.44606 0,6.06091 -0.42592,0.85184 -1.59439,1.16847 -2.02031,2.02031 -0.30117,0.60234 0,1.34687 0,2.0203 0,0.67344 0,1.34687 0,2.02031 0,3.36717 0,6.73435 0,10.10152 0,6.06092 0,12.12183 0,18.18275 0,2.69374 0,5.38748 0,8.08122 0,0.67343 0.67344,2.0203 0,2.0203 -0.67343,0 0,-2.69374 0,-2.0203 0,0.0198 0,5.04052 0,6.06091 0,0.67344 0.67344,2.02031 0,2.02031 -0.67343,0 0,-2.69374 0,-2.02031 0,2.69374 0,5.38748 0,8.08122 0,0.67344 0,1.34687 0,2.02031 0,0.67343 0.67344,2.0203 0,2.0203 -0.67343,0 0,-1.34687 0,-2.0203 2.69374,0.67343 5.33248,1.62763 8.08122,2.0203 2.66667,0.38096 5.38748,0 8.08122,0 4.71405,0 9.42809,0 14.14214,0 12.12183,0 24.24366,0 36.36549,0 3.36717,0 6.734353,0 10.101523,0 2.69374,0 5.40396,-0.29747 8.08122,0 3.41286,0.37921 6.68177,1.70942 10.10153,2.02031 4.02402,0.36582 8.08122,0 12.12183,0 8.75466,0 17.50931,0 26.26397,0 34.34518,0 68.69037,0 103.03556,0 11.44839,0 22.89679,0 34.34518,0 2.15966,0 11.95429,0.43757 14.14214,0 2.08823,-0.41765 3.95273,-1.71914 6.06091,-2.02031 3.25994,-0.4657 14.21512,0 18.18275,0 13.4687,0 26.9374,0 40.4061,0 11.4484,0 22.89679,0 34.34519,0 3.36717,0 6.73435,0 10.10152,0 0.67344,0 1.34687,0 2.02031,0 0.67343,0 1.41796,0.30117 2.0203,0 0.85184,-0.42591 1.34687,-1.34687 2.02031,-2.0203 4.04061,-0.67344 8.06665,-1.44099 12.12183,-2.02031 3.33333,-0.47619 6.73435,0 10.10152,0 8.86327,0 7.70775,0 14.14214,0 2.69374,0 5.38748,0 8.08122,0 0.67344,0 2.02031,-0.67343 2.02031,0 0,0.67344 -1.34687,0 -2.02031,0 1.34687,-3.36717 3.04432,-6.6145 4.04061,-10.10152 0.43572,-1.52502 0,-7.95882 0,-10.10153 0,-8.75465 0,-17.50931 0,-26.26396 0,-2.10097 -0.3973,-10.53263 0,-12.12183 0.36522,-1.46089 1.65508,-2.57973 2.02031,-4.04061 0.32666,-1.30666 0,-2.69374 0,-4.04061 0,-2.69374 -0.38096,-5.41456 0,-8.08122 0.30116,-2.10819 1.5038,-3.99491 2.0203,-6.06092 0.34373,-1.37491 -0.55244,-4.95604 0,-6.06091 0.42592,-0.85184 1.71914,-1.1168 2.02031,-2.02031 0.63887,-1.91663 0,-4.04061 0,-6.06091 0,-4.71405 0,-9.42809 0,-14.14214 0,-2.02031 -0.49,-4.10093 0,-6.06092 0.36522,-1.46088 1.54411,-2.61203 2.0203,-4.04061 0.42592,-1.27775 0,-2.69374 0,-4.04061 0,-4.04061 0,-8.08122 0,-12.12183 0,-0.67343 0.47619,-1.54411 0,-2.0203 -0.47619,-0.47619 -1.54411,0.47619 -2.0203,0 -4.18009,-4.18008 6.38772,0.1634 -2.02031,-4.04061 -2.78672,-1.39336 -1.80711,2.4467 -4.04061,-2.02031 -2.48796,-4.97591 5.86441,1.8238 -2.0203,-6.06091 -0.4762,-0.47619 -1.54412,0.47619 -2.02031,0 -0.95238,-0.95238 0.95238,-3.08823 0,-4.04061 -0.47619,-0.47619 -1.54411,0.47619 -2.0203,0 -1.01016,-1.01015 1.01015,-5.05076 0,-6.06092 -0.4762,-0.47619 -1.54412,0.47619 -2.02031,0 -0.70917,-0.70916 0.69775,-8.70603 0,-10.10152 -2.4965,-4.99299 -2.0203,0.69736 -2.0203,-4.04061 0,-0.74193 -0.0813,-7.99992 0,-8.08122 0.47619,-0.47619 1.34687,0 2.0203,0 0.67344,0 1.34687,0 2.02031,0"
       id="path4879"
       inkscape:connector-curvature="0" />
    <path
       style="fill:none;stroke:#000000;stroke-width:10;stroke-linecap:butt;stroke-linejoin:miter;stroke-miterlimit:4;stroke-opacity:0.50196078;stroke-dasharray:none"
       d="m 55.602927,837.49269 c 2.69374,0 5.38748,0 8.08122,0 0.48998,0 5.99594,-0.065 6.06091,0 0.47619,0.47619 -0.47619,1.54412 0,2.02031 0.0916,0.0916 9.14896,0 10.10153,0 2.09004,0 2.79236,-0.47619 4.04061,2.0203 0.30117,0.60234 0.67343,2.02031 0,2.02031 -0.67344,0 0,-2.69374 0,-2.02031 0,11.4484 -1.34687,0.67344 2.0203,4.04061 0.95238,0.95238 -0.95238,3.08823 0,4.04061 0.47619,0.47619 1.71914,-0.60234 2.02031,0 0.60234,1.20468 0,2.69374 0,4.04061 0,0.67344 -0.47619,1.54412 0,2.02031 0.47619,0.47619 1.54411,-0.47619 2.0203,0 0.47619,0.47619 -0.47619,1.54411 0,2.0203 5.38748,5.38748 0,-5.38748 0,0 0,0.95238 2.02031,1.06793 2.02031,2.02031 0,0.67343 -1.54412,-0.47619 -2.02031,0 -0.47619,0.47619 0,1.34687 0,2.0203 0,0.67344 0,1.34687 0,2.02031 0,0.67343 0.47619,1.54411 0,2.0203 -0.47619,0.47619 -1.41796,-0.30117 -2.0203,0 -0.85184,0.42592 -1.16847,1.59439 -2.02031,2.02031 -0.61484,0.30742 -5.15105,0 -6.06091,0 -5.38748,0 -10.77496,0 -16.16244,0 -2.02031,0 -4.04061,0 -6.06092,0 -0.67343,0 -2.0203,0.67343 -2.0203,0 0,-0.67344 1.54411,0.47619 2.0203,0 0.47619,-0.47619 0,-1.34687 0,-2.02031 0,-1.05645 0.26561,-7.54999 0,-8.08122 -0.42592,-0.85183 -1.59439,-1.16847 -2.0203,-2.0203 -0.30117,-0.60234 0,-1.34687 0,-2.02031 -0.67344,-0.67343 -1.59439,-1.16847 -2.02031,-2.0203 -0.30117,-0.60234 0,-1.34687 0,-2.02031 0,-0.67343 -0.11071,-1.35603 0,-2.0203 0.56452,-3.38714 1.34687,-6.73435 2.02031,-10.10153 z"
       id="path4881"
       inkscape:connector-curvature="0" />
    <path
       style="fill:none;stroke:#000000;stroke-width:10;stroke-linecap:butt;stroke-linejoin:miter;stroke-miterlimit:4;stroke-opacity:0.50196078;stroke-dasharray:none"
       d="m 118.23238,839.513 c 8.08122,0 16.16245,0 24.24367,0 0.67343,0 1.34687,0 2.0203,0 0.67344,0 1.54412,-0.47619 2.02031,0 0.48614,0.48615 -0.48615,7.59507 0,8.08122 0.47619,0.47619 1.54411,-0.47619 2.0203,0 0.47619,0.47619 0,1.34687 0,2.0203 0,0.95257 0.0916,10.00997 0,10.10153 -0.95238,0.95238 -3.08823,-0.95238 -4.04061,0 -0.95238,0.95238 0.95238,3.08823 0,4.04061 -0.62558,0.62558 -9.47594,-0.62558 -10.10152,0 -0.4762,0.47619 0.47619,1.54411 0,2.0203 -0.065,0.065 -5.57094,0 -6.06092,0 -0.67343,0 -1.34687,0 -2.02031,0 -0.67343,0 -2.0203,0.67344 -2.0203,0 0,-0.67343 2.0203,0.67344 2.0203,0 0,-0.95238 -1.71913,-1.11679 -2.0203,-2.0203 -0.003,-0.009 0.002,-6.05899 0,-6.06092 -0.47619,-0.47619 -1.54411,0.47619 -2.02031,0 -0.43193,-0.43193 0.37129,-6.96737 0,-8.08122 -1.14681,-3.44045 -2.69374,-6.73435 -4.04061,-10.10152 z"
       id="path4883"
       inkscape:connector-curvature="0" />
    <path
       style="fill:none;stroke:#000000;stroke-width:10;stroke-linecap:butt;stroke-linejoin:miter;stroke-miterlimit:4;stroke-opacity:0.50196078;stroke-dasharray:none"
       d="m 178.84154,839.513 c 4.71404,0 9.42809,0 14.14213,0 0.67344,0 1.34687,0 2.02031,0 0.67343,0 2.0203,-0.67344 2.0203,0 0,0.67343 -2.0203,-0.67344 -2.0203,0 0,2.86892 4.6245,2.0203 6.06091,2.0203 1.34687,0 2.69374,0 4.04061,0 0.67344,0 2.02031,-0.67343 2.02031,0 0,2.8621 -9.42809,-5.72419 2.0203,0 0.60234,0.30117 -0.30117,1.41797 0,2.02031 0.42592,0.85183 1.59439,1.16847 2.02031,2.0203 0.3653,0.73061 0,8.69633 0,10.10153 0,0.67343 0,1.34687 0,2.0203 0,0.67344 0.67343,2.02031 0,2.02031 -0.67344,0 0.67343,-2.02031 0,-2.02031 -4.20401,0 -0.81291,2.83322 -2.02031,4.04061 -0.47619,0.47619 -1.41796,-0.30117 -2.0203,0 -0.85184,0.42592 -1.16847,1.59439 -2.02031,2.02031 -1.61624,0.80812 -4.44467,-0.80812 -6.06091,0 -0.85184,0.42592 -1.16847,1.59439 -2.02031,2.0203 -0.53122,0.26562 -7.02476,0 -8.08122,0 -0.67343,0 -1.34687,0 -2.0203,0 -0.67344,0 -2.02031,0.67344 -2.02031,0 0,-0.67343 2.69374,0 2.02031,0 -1.34687,0 -2.83594,0.60234 -4.04061,0 -0.83862,-0.4193 0.7052,-5.35571 0,-6.06091 -0.47619,-0.47619 -1.54412,0.47619 -2.02031,0 -0.41302,-0.41303 0.40052,-5.25988 0,-6.06092 -0.42592,-0.85183 -1.59439,-1.16847 -2.0203,-2.0203 -0.30117,-0.60234 0,-1.34687 0,-2.02031 0,-3.36717 0,-6.73435 0,-10.10152 z"
       id="path4885"
       inkscape:connector-curvature="0" />
    <path
       style="fill:none;stroke:#000000;stroke-width:10;stroke-linecap:butt;stroke-linejoin:miter;stroke-miterlimit:4;stroke-opacity:0.50196078;stroke-dasharray:none"
       d="m 239.45069,845.57391 c 2.69374,-0.67343 5.3585,-1.47576 8.08122,-2.0203 1.81827,-0.36366 4.20223,0 6.06092,0 4.71404,0 9.42809,0 14.14213,0 0.53751,0 5.8941,-0.33363 6.06092,0 0.29556,0.59113 0,10.46821 0,12.12183 0,1.34687 0,2.69374 0,4.04061 0,0.67343 0.67343,2.0203 0,2.0203 -0.67344,0 0.67343,-2.0203 0,-2.0203 -0.95238,0 -1.16847,1.59439 -2.02031,2.0203 -0.60234,0.30117 -1.34687,0 -2.0203,0 -0.67344,0 -1.34687,0 -2.02031,0 -3.36717,0 -6.73435,0 -10.10152,0 -2.69374,0 -5.38748,0 -8.08122,0 -0.67344,0 -2.02031,0.67344 -2.02031,0 0,-2.86209 9.42809,5.7242 -2.0203,0 -0.62416,-0.31208 0.36135,-5.3382 0,-6.06091 -1.75611,-3.51221 -4.04061,-6.73435 -6.06092,-10.10153 z"
       id="path4887"
       inkscape:connector-curvature="0" />
    <path
       style="fill:none;stroke:#000000;stroke-width:10;stroke-linecap:butt;stroke-linejoin:miter;stroke-miterlimit:4;stroke-opacity:0.50196078;stroke-dasharray:none"
       d="m 300.05984,845.57391 c 3.36718,0 6.73435,0 10.10153,0 0.67343,0 1.41796,0.30117 2.0203,0 0.85184,-0.42591 1.09636,-1.78932 2.02031,-2.0203 2.61331,-0.65333 5.38748,0 8.08122,0 0.67343,0 1.34687,0 2.0203,0 0.67344,0 1.54412,-0.47619 2.02031,0 0.95238,0.95238 -0.95238,3.08823 0,4.04061 0.47619,0.47619 1.54411,-0.47619 2.0203,0 0.065,0.065 0,5.57094 0,6.06091 0,1.34687 0,2.69374 0,4.04061 0,0.67344 0,2.69374 0,2.02031 0,-1.34687 0,-5.38748 0,-4.04061 0,2.0203 0,4.04061 0,6.06091 0,0.67344 0.47619,1.54412 0,2.02031 -0.66597,0.66597 -6.61923,-0.48733 -8.08122,0 -0.9035,0.30117 -1.16847,1.59439 -2.0203,2.0203 -0.60234,0.30117 -1.34687,0 -2.02031,0 -1.34687,0 -2.69374,0 -4.04061,0 -3.36717,0 -6.73435,0 -10.10152,0 -0.67344,0 -1.34687,0 -2.02031,0 -0.67343,0 -2.0203,0.67344 -2.0203,0 0,-0.67343 2.0203,0.67344 2.0203,0 0,-0.95238 -1.59438,-1.16847 -2.0203,-2.0203 -0.30117,-0.60234 0,-1.34687 0,-2.02031 0,-7.06937 0.23903,-7.25608 2.0203,-16.16244 z"
       id="path4889"
       inkscape:connector-curvature="0" />
    <path
       style="fill:none;stroke:#000000;stroke-width:10;stroke-linecap:butt;stroke-linejoin:miter;stroke-miterlimit:4;stroke-opacity:0.50196078;stroke-dasharray:none"
       d="m 352.58777,845.57391 c 5.06916,-2.20899 9.07636,-2.0203 14.14214,-2.0203 0.67344,0 1.34687,0 2.02031,0 0.67343,0 1.41796,-0.30117 2.0203,0 4.99299,2.49649 -0.69736,2.0203 4.04061,2.0203 3.36718,0 6.73435,0 10.10153,0 0.67343,0 1.54411,-0.47619 2.0203,0 0.0813,0.0813 0,7.33929 0,8.08122 0,2.69374 0,5.38748 0,8.08122 0,0.67344 0.67344,2.02031 0,2.02031 -0.67343,0 0,-2.69374 0,-2.02031 0,1.34687 0.60234,2.83594 0,4.04061 -0.60234,1.20468 -2.83593,-0.60233 -4.04061,0 -0.85183,0.42592 -1.16847,1.59439 -2.0203,2.02031 -1.20468,0.60234 -2.83594,-0.60234 -4.04061,0 -4.993,2.49649 0.69736,2.0203 -4.04061,2.0203 -5.38748,0 -10.77496,0 -16.16244,0 -0.67344,0 -1.34687,0 -2.02031,0 -0.67343,0 -2.02031,0.67344 -2.02031,0 0,-0.65143 3.47934,-2.91805 4.04062,-4.04061 0.30116,-0.60233 0,-1.34687 0,-2.0203 0,-0.67344 0,-1.34687 0,-2.02031 0,-8.20218 0.27659,-5.36941 -4.04062,-16.16244 z"
       id="path4891"
       inkscape:connector-curvature="0" />
    <path
       style="fill:none;stroke:#000000;stroke-width:10;stroke-linecap:butt;stroke-linejoin:miter;stroke-miterlimit:4;stroke-opacity:0.50196078;stroke-dasharray:none"
       d="m 419.25784,843.55361 c 7.40779,0 14.81557,0 22.22336,0 0.67343,0 1.34687,0 2.0203,0 0.67344,0 1.54412,-0.47619 2.02031,0 0.47619,0.47619 -0.47619,1.54411 0,2.0203 1.01015,1.01016 5.05076,-1.01015 6.06091,0 0.47619,0.47619 -0.47619,1.54412 0,2.02031 0.47619,0.47619 1.54412,-0.47619 2.02031,0 0.0813,0.0813 0,7.33929 0,8.08122 0,0.67343 0,1.34687 0,2.0203 0,0.67344 0.67343,2.02031 0,2.02031 -0.67344,0 0,-2.69374 0,-2.02031 0,11.4484 1.34687,0.67344 -2.02031,4.04061 -0.2971,0.29711 0.23769,6.06092 0,6.06092 -0.67343,0 0.67344,-2.02031 0,-2.02031 -0.95238,0 -1.11679,1.71914 -2.0203,2.02031 -0.92482,0.30827 -8.97388,0 -10.10153,0 -7.45443,0 -4.00202,0 -12.12183,0 -0.48997,0 -5.99594,0.065 -6.06091,0 -0.55379,-0.55379 0.47353,-8.68093 0,-10.10153 -3.52615,-10.57845 -2.02031,5.34995 -2.02031,-14.14213 z"
       id="path4893"
       inkscape:connector-curvature="0" />
    <path
       style="fill:none;stroke:#000000;stroke-width:10;stroke-linecap:butt;stroke-linejoin:miter;stroke-miterlimit:4;stroke-opacity:0.50196078;stroke-dasharray:none"
       d="m 57.623227,894.06124 c 4.04061,0 8.08122,0 12.12183,0 0.67344,0 1.41797,0.30116 2.02031,0 0.85183,-0.42592 1.16847,-1.59439 2.0203,-2.02031 0.60234,-0.30117 1.34687,0 2.02031,0 0.67343,0 1.34687,0 2.0203,0 4.04061,0 8.08122,0 12.12183,0 0.74193,0 7.99992,-0.0813 8.08122,0 0.47619,0.47619 0,1.34687 0,2.02031 0,4.71404 0,9.42809 0,14.14213 0,0.95257 0.0916,10.00996 0,10.10153 -0.47619,0.47619 -1.54411,-0.47619 -2.0203,0 -0.47619,0.47619 0.47619,1.54411 0,2.0203 -0.48615,0.48615 -7.59507,-0.48615 -8.08122,0 -0.47619,0.47619 0.47619,1.54412 0,2.02031 -0.0813,0.0813 -7.33929,0 -8.08122,0 -1.34687,0 -2.69374,0 -4.04061,0 -0.67344,0 -2.02031,0.67343 -2.02031,0 0,-0.67344 2.69374,0 2.02031,0 -1.34687,0 -2.69374,0 -4.04061,0 -0.67344,0 -1.54412,0.47619 -2.02031,0 -0.95238,-0.95238 0.95238,-3.08823 0,-4.04061 -0.47619,-0.47619 -1.54411,0.47619 -2.0203,0 -0.95238,-0.95238 0.95238,-3.08823 0,-4.04061 -0.47619,-0.47619 -1.54412,0.47619 -2.02031,0 -0.0813,-0.0813 0,-7.33929 0,-8.08122 0,-2.69374 0,-5.38748 0,-8.08122 0,-0.67344 0,-2.69374 0,-2.02031 0,1.34687 0,2.69374 0,4.04061"
       id="path4895"
       inkscape:connector-curvature="0" />
    <path
       style="fill:none;stroke:#000000;stroke-width:10;stroke-linecap:butt;stroke-linejoin:miter;stroke-miterlimit:4;stroke-opacity:0.50196078;stroke-dasharray:none"
       d="m 138.43544,898.10185 c 7.43416,-5.89961 9.10936,-8.08122 18.18274,-8.08122 8.08122,0 16.16244,0 24.24366,0 2.02031,0 4.04061,0 6.06092,0 0.67343,0 1.54411,-0.4762 2.0203,0 0.47619,0.47619 0.47619,1.54411 0,2.0203 -0.47619,0.47619 -1.54411,-0.47619 -2.0203,0 -0.47619,0.47619 0.30117,1.41797 0,2.02031 -6.70051,6.7005 0.95238,-1.90477 -2.02031,4.04061 -0.42592,0.85183 -1.59438,1.16847 -2.0203,2.0203 -0.60234,1.20468 0.60234,2.83593 0,4.04061 -0.42592,0.85184 -1.59439,1.16847 -2.02031,2.02031 -0.54799,1.09599 0.5528,7.52842 0,8.08122 -0.47619,0.47619 -1.34687,0 -2.0203,0 -4.04061,0 -8.08122,0 -12.12183,0 -0.48998,0 -5.99595,-0.065 -6.06092,0 -0.47619,0.47619 0.47619,1.54411 0,2.0203 -0.28491,0.28492 -5.64649,0.20721 -6.06091,0 -3.96595,-1.98297 -0.90954,-3.83938 -2.02031,-6.06091 -0.42592,-0.85184 -1.59439,-1.16847 -2.0203,-2.02031 -0.60234,-1.20468 0.60233,-2.83593 0,-4.04061 -0.42592,-0.85183 -2.69374,-1.34687 -2.02031,-2.0203 0.67344,-0.67344 2.02031,2.97268 2.02031,2.0203 0,-1.50585 -1.54412,-2.61204 -2.02031,-4.04061 -0.42592,-1.27775 0,-2.69374 0,-4.04061"
       id="path4897"
       inkscape:connector-curvature="0" />
    <path
       style="fill:none;stroke:#000000;stroke-width:10;stroke-linecap:butt;stroke-linejoin:miter;stroke-miterlimit:4;stroke-opacity:0.50196078;stroke-dasharray:none"
       d="m 221.26794,892.04093 c 2.69374,0 5.42414,0.44285 8.08122,0 1.48536,-0.24756 2.61204,-1.54411 4.04061,-2.0203 1.26806,-0.42269 6.45481,0 8.08123,0 0.67343,0 1.34687,0 2.0203,0 0.67344,0 1.54411,-0.4762 2.02031,0 0.43193,0.43193 -0.37129,6.96737 0,8.08122 0.47619,1.42857 1.34687,2.69374 2.0203,4.04061 0.67344,1.34687 1.24555,2.74935 2.02031,4.04061 1.24924,2.08208 2.95472,3.88915 4.04061,6.06091 0.30116,0.60234 -0.47619,1.54412 0,2.02031 0.47619,0.47619 1.54411,-0.47619 2.0203,0 0.065,0.065 0,5.57093 0,6.06091 0,0.67344 0.47619,1.54412 0,2.02031 -0.47619,0.47619 -2.0203,0.67343 -2.0203,0 0,-0.67344 2.69374,0 2.0203,0 -1.34687,0 -2.83593,-0.60234 -4.04061,0 -0.60234,0.30117 0.47619,1.54411 0,2.0203 -0.47619,0.47619 -1.34687,0 -2.0203,0 -3.36718,0 -6.73435,0 -10.10153,0 -0.67344,0 -1.54411,0.47619 -2.02031,0 -0.47619,-0.47619 0.4762,-1.54411 0,-2.0203 -0.47619,-0.47619 -1.34687,0 -2.0203,0 -0.67344,0 -1.34687,0 -2.02031,0 -0.67343,0 -2.0203,0.67343 -2.0203,0 0,-0.67344 2.69374,0 2.0203,0 -1.34687,0 -2.69374,0 -4.04061,0 -0.67343,0 -1.54411,0.47619 -2.0203,0 -0.47619,-0.47619 0.47619,-1.54412 0,-2.02031 -0.47619,-0.47619 -2.02031,0.67344 -2.02031,0 0,-0.6037 6.70051,1.32995 0,-2.0203 -1.20467,-0.60234 -3.08822,0.95238 -4.04061,0 -0.47619,-0.47619 0.47619,-1.54412 0,-2.02031 -0.47619,-0.47619 -1.54411,0.47619 -2.0203,0 -0.28492,-0.28491 -0.20721,-5.64649 0,-6.06091 0.42592,-0.85184 1.59439,-1.16847 2.0203,-2.02031 0.60234,-1.20468 -1.34687,-4.04061 0,-4.04061 2.8621,0 -5.72419,9.42809 0,-2.0203 0.30117,-0.60234 2.02031,0.67343 2.02031,0 0,-3.43386 -1.34687,-6.73435 -2.02031,-10.10153 z"
       id="path4899"
       inkscape:connector-curvature="0" />
    <path
       style="fill:none;stroke:#000000;stroke-width:10;stroke-linecap:butt;stroke-linejoin:miter;stroke-miterlimit:4;stroke-opacity:0.50196078;stroke-dasharray:none"
       d="m 277.83649,896.08154 c 5.06916,-2.20899 9.07635,-2.0203 14.14213,-2.0203 0.67344,0 1.54412,-0.47619 2.02031,0 0.47619,0.47619 -0.47619,1.54411 0,2.0203 0.47619,0.47619 1.34687,0 2.0203,0 0.67344,0 1.34687,0 2.02031,0 1.43199,0 11.59948,-0.26117 12.12183,0 0.85183,0.42592 1.16847,1.59439 2.0203,2.02031 0.60234,0.30116 1.54412,-0.47619 2.02031,0 0.0813,0.0813 0,7.33929 0,8.08122 0,0.95257 0.0916,10.00996 0,10.10152 -0.47619,0.47619 -1.54412,-0.47619 -2.02031,0 -0.47619,0.47619 0.47619,1.54412 0,2.02031 -0.47619,0.47619 -2.0203,0.67343 -2.0203,0 0,-0.67344 2.69374,0 2.0203,0 -6.73435,0 -13.4687,0 -20.20305,0 -0.95257,0 -10.00996,0.0916 -10.10152,0 -0.0916,-0.0916 0,-9.14896 0,-10.10153 0,-5.64686 0.2501,-1.39504 -4.04061,-12.12183 z"
       id="path4901"
       inkscape:connector-curvature="0" />
    <path
       style="fill:none;stroke:#000000;stroke-width:10;stroke-linecap:butt;stroke-linejoin:miter;stroke-miterlimit:4;stroke-opacity:0.50196078;stroke-dasharray:none"
       d="m 336.42533,894.06124 c 7.40779,0 14.81557,0 22.22336,0 0.67344,0 1.34687,0 2.02031,0 0.67343,0 1.54411,0.47619 2.0203,0 0.47619,-0.47619 -0.47619,-1.54412 0,-2.02031 0.47619,-0.47619 1.34687,0 2.02031,0 0.48997,0 5.99594,-0.065 6.06091,0 0.47619,0.47619 0,1.34687 0,2.02031 0,1.62641 0.42268,6.81316 0,8.08122 -0.47619,1.42857 -1.54411,2.61203 -2.0203,4.04061 -0.63446,1.90335 0.65492,10.81197 0,12.12183 -2.04302,4.08602 -4.68847,0.64786 -6.06092,2.0203 -0.47619,0.47619 0.47619,1.54412 0,2.02031 -0.47619,0.47619 -1.34687,0 -2.0203,0 -3.36718,0 -6.73435,0 -10.10153,0 -0.67344,0 -1.34687,0 -2.02031,0 -0.67343,0 -1.54411,0.47619 -2.0203,0 -0.47619,-0.47619 0.21296,-1.38143 0,-2.02031 -0.47619,-1.42857 -1.54411,-2.61204 -2.02031,-4.04061 -0.21295,-0.63888 0.30117,-1.41797 0,-2.0203 -0.42591,-0.85184 -1.59438,-1.16847 -2.0203,-2.02031 -0.60234,-1.20468 0.95238,-3.08823 0,-4.04061 -0.47619,-0.47619 -1.54412,0.47619 -2.02031,0 -0.95238,-0.95238 0.42592,-2.76286 0,-4.04061 -1.14681,-3.44045 -2.69374,-6.73435 -4.04061,-10.10152 z"
       id="path4903"
       inkscape:connector-curvature="0" />
    <path
       style="fill:none;stroke:#000000;stroke-width:10;stroke-linecap:butt;stroke-linejoin:miter;stroke-miterlimit:4;stroke-opacity:0.50196078;stroke-dasharray:none"
       d="m 401.0751,894.06124 c 4.71404,0 9.42809,0 14.14213,0 5.38748,0 10.77496,0 16.16244,0 0.67344,0 1.54412,-0.47619 2.02031,0 0.47619,0.47619 0,1.34687 0,2.0203 0,0.67344 0,1.34687 0,2.02031 0,4.71404 0,9.42809 0,14.14213 0,0.67344 0.47619,1.54412 0,2.02031 -0.47619,0.47619 -1.41797,-0.30117 -2.02031,0 -0.85183,0.42591 -1.16847,1.59438 -2.0203,2.0203 -0.60234,0.30117 -1.54412,-0.47619 -2.02031,0 -0.47619,0.47619 0.47619,1.54412 0,2.02031 -0.95238,0.95238 -2.83593,-0.60234 -4.04061,0 -0.85183,0.42591 -1.16847,1.59438 -2.0203,2.0203 -0.53122,0.26561 -7.02476,0 -8.08122,0 -0.67344,0 -1.34687,0 -2.02031,0 -0.67343,0 -2.0203,0.67344 -2.0203,0 0,-0.67343 2.69374,0 2.0203,0 -11.44839,0 -0.67343,1.34687 -4.04061,-2.0203 -0.47619,-0.47619 -1.54411,0.47619 -2.0203,0 -0.0916,-0.0916 0,-9.14896 0,-10.10153 0,-6.85552 -0.003,-4.04777 -4.04061,-14.14213 z"
       id="path4905"
       inkscape:connector-curvature="0" />
    <path
       style="fill:none;stroke:#000000;stroke-width:10;stroke-linecap:butt;stroke-linejoin:miter;stroke-miterlimit:4;stroke-opacity:0.50196078;stroke-dasharray:none"
       d="m 81.866887,944.56886 c 9.42809,0 18.856183,0 28.284273,0 0.48998,0 5.99595,-0.065 6.06092,0 0.47619,0.47619 0,1.34687 0,2.02031 0,0.67343 0,1.34687 0,2.0203 0,0.67344 0,1.34687 0,2.02031 0,0.67343 -0.30117,1.41796 0,2.0203 0.42592,0.85184 1.59439,1.16847 2.0203,2.02031 0.26562,0.53122 0,7.02476 0,8.08122 0,0.67343 0,1.34687 0,2.0203 0,0.67344 0.4762,1.54412 0,2.02031 -0.47619,0.47619 -1.34687,0 -2.0203,0 -3.36718,0 -6.73435,0 -10.10153,0 -2.69374,0 -5.38748,0 -8.081223,0 -2.183,0 -5.55412,0 -4.04061,0 1.34687,0 5.38748,0 4.04061,0 -2.0203,0 -4.04061,0 -6.06091,0 -0.67344,0 -1.34687,0 -2.02031,0 -0.67343,0 -1.54411,0.47619 -2.0203,0 -0.47619,-0.47619 0.47619,-1.54412 0,-2.02031 -5.38748,0 0.67343,0.67344 -2.02031,-2.0203 -0.47619,-0.47619 -1.54411,0.47619 -2.0203,0 -0.47619,-0.47619 0.47619,-1.54412 0,-2.02031 -0.47619,-0.47619 -1.54412,0.47619 -2.02031,0 -0.47619,-0.47619 0,-1.34687 0,-2.0203 0,-0.67344 0,-1.34687 0,-2.02031 0,-5.27848 0,-1.89398 0,-12.12183 z"
       id="path4907"
       inkscape:connector-curvature="0" />
    <path
       style="fill:none;stroke:#000000;stroke-width:10;stroke-linecap:butt;stroke-linejoin:miter;stroke-miterlimit:4;stroke-opacity:0.50196078;stroke-dasharray:none"
       d="m 172.78062,942.54856 c 17.50931,0 35.01862,0 52.52793,0 3.36718,0 6.76036,-0.41765 10.10153,0 2.11314,0.26414 3.97268,1.60266 6.06092,2.0203 2.18785,0.43757 11.98248,0 14.14213,0 1.34687,0 2.76286,-0.42591 4.04061,0 1.42857,0.47619 2.61204,1.54412 4.04061,2.02031 1.27775,0.42592 2.83593,-0.60234 4.04061,0 0.85184,0.42592 1.16847,1.59439 2.02031,2.0203 1.20467,0.60234 3.08823,-0.95238 4.04061,0 0.47619,0.47619 -0.47619,1.54412 0,2.02031 0.47619,0.47619 1.34687,0 2.0203,0 4.04061,0 8.08122,0 12.12183,0 0.67344,0 1.34687,0 2.02031,0 0.67343,0 1.41796,0.30117 2.0203,0 0.85184,-0.42592 1.16847,-1.59439 2.02031,-2.02031 1.61624,-0.80812 4.44467,0.80812 6.06091,0 0.85184,-0.42591 1.16847,-1.59438 2.02031,-2.0203 1.20467,-0.60234 2.76285,0.42592 4.04061,0 1.42857,-0.47619 2.61204,-1.54412 4.04061,-2.02031 1.27775,-0.42591 3.08823,0.95238 4.04061,0 0.47619,-0.47619 -0.47619,-1.54411 0,-2.0203 0.47619,-0.47619 1.34687,0 2.0203,0 2.69374,0 5.38748,0 8.08122,0 0.67344,0 1.34687,0 2.02031,0 0.67343,0 1.41797,-0.30117 2.0203,0 0.85184,0.42592 1.1168,1.71913 2.02031,2.0203 1.27775,0.42592 2.76286,-0.42591 4.04061,0 0.90351,0.30117 1.09636,1.78932 2.0203,2.02031 2.61332,0.65333 5.38748,0 8.08122,0 6.73435,0 13.46871,0 20.20306,0 0.67343,0 1.34687,0 2.0203,0 0.67344,0 1.54412,-0.47619 2.02031,0 0.0813,0.0813 0,7.33929 0,8.08122 0,0.67343 0,1.34687 0,2.0203 0,0.67344 0.67343,2.02031 0,2.02031 -0.67344,0 0,-2.69374 0,-2.02031 0,2.02031 0,4.04061 0,6.06092 0,0.67343 0.47619,1.54411 0,2.0203 -0.065,0.065 -5.57094,0 -6.06092,0 -10.10153,0 -20.20305,0 -30.30458,0 -6.50326,0 3.44888,-0.47619 -4.04061,2.02031 -0.0918,0.0306 -9.81111,0.1452 -10.10152,0 -0.85184,-0.42592 -1.16847,-1.59439 -2.02031,-2.02031 -0.60234,-0.30117 -1.34687,0 -2.0203,0 -0.67344,0 -1.34687,0 -2.02031,0 -3.36717,0 -6.73435,0 -10.10152,0 -4.04061,0 -8.08122,0 -12.12183,0 -1.34687,0 -2.76286,-0.42591 -4.04061,0 -0.90351,0.30117 -1.16847,1.59439 -2.02031,2.02031 -0.73061,0.3653 -8.69632,0 -10.10152,0 -7.40779,0 -14.81557,0 -22.22336,0 -18.85618,0 -37.71236,0 -56.56854,0 -6.73435,0 -13.4687,0 -20.20305,0 -0.67344,0 -1.34687,0 -2.02031,0 -0.67343,0 -1.54411,0.47619 -2.0203,0 -1.01016,-1.01015 1.01015,-5.05076 0,-6.06092 -0.47619,-0.47619 -1.54412,0.47619 -2.02031,0 -0.47619,-0.47619 0,-1.34687 0,-2.0203 0,-0.67344 0,-1.34687 0,-2.02031 0,-6.85551 0.003,-4.04777 4.04061,-14.14213 z"
       id="path4909"
       inkscape:connector-curvature="0" />
    <path
       style="fill:none;stroke:#000000;stroke-width:10;stroke-linecap:butt;stroke-linejoin:miter;stroke-miterlimit:4;stroke-opacity:0.50196078;stroke-dasharray:none"
       d="m 415.21723,942.54856 c 8.73455,-2.18364 5.30458,-2.02031 10.10153,-2.02031 2.0203,0 4.04061,0 6.06091,0 0.67344,0 2.02031,-0.67343 2.02031,0 0,0.67344 -2.69374,0 -2.02031,0 1.34687,0 2.69374,0 4.04061,0 0.67344,0 1.54412,-0.47619 2.02031,0 0.47619,0.47619 0,1.34687 0,2.02031 0,0.90986 0.30742,5.44607 0,6.06091 -0.42592,0.85184 -1.59439,1.16847 -2.02031,2.02031 -0.30117,0.60234 0.47619,1.54411 0,2.0203 -0.47619,0.47619 -1.54411,-0.47619 -2.0203,0 -0.95238,0.95238 0.95238,3.08823 0,4.04061 -0.95238,0.95238 -3.08823,-0.95238 -4.04061,0 -0.47619,0.47619 0.47619,1.54412 0,2.02031 -0.47619,0.47619 -1.54412,-0.47619 -2.02031,0 -2.69374,2.69374 3.36718,2.0203 -2.0203,2.0203 -2.02031,0 -4.04061,0 -6.06092,0 -0.67343,0 -2.0203,0.67344 -2.0203,0 0,-0.67343 2.0203,-0.67343 2.0203,0 0,2.4463 -5.65934,2.42188 -6.06091,2.02031 -0.065,-0.065 0,-5.57094 0,-6.06092 0,-5.36763 0.73618,-7.7215 2.0203,-14.14213 z"
       id="path4911"
       inkscape:connector-curvature="0" />
  </g>
</svg>
